<svg xmlns="http://www.w3.org/2000/svg" width="551.667" height="150.334" viewBox="-135.527 295.445 551.667 150.334" fill="#004a30" xmlns:v="https://vecta.io/nano"><path d="M-60.969 308.113l-12.509 72.949c-3.013 16.343-6.938 24.834-18.077 24.834-7.853 0-14.334-6.3-16.982-9.13l-25.29 28.942c5.479 4.383 20.269 16.068 45.559 16.068 14.152 0 29.217-4.107 39.442-11.777 13.513-10.226 17.529-18.808 20.726-34.42l13.786-87.558h-46.654v.092zm233.821 16.069l7.213-26.934-46.654 18.26-2.191 8.673-23.921 30.495h15.887l-10.317 38.62c-2.1 7.304-3.652 13.787-3.743 19.447-.092 5.021 1.096 9.404 2.557 13.146 4.291 10.5 14.79 15.705 27.755 15.613 27.481-.092 39.898-24.104 42.638-30.129v-.091c0-.365-.274-.548-.548-.548h-.183c-1.552.913-4.656 2.283-11.048 2.556-8.308.365-17.256-4.291-17.256-11.229 0-3.47 1.096-7.852 2.191-11.778l9.495-35.516h22.825l8.035-30.494-22.735-.091h0zm86.096 2.374c-47.294 0-71.032 34.968-71.032 66.193 0 29.399 20.36 49.577 49.576 49.577 29.49 0 41.999-24.287 44.555-30.313v-.091c0-.365-.273-.639-.547-.639h-.183c-2.831 1.37-10.409 4.2-22.187 3.469-16.434-1.004-27.116-15.612-27.116-28.851 0-14.517 9.678-34.785 32.96-34.785 12.781 0 19.721 5.752 24.012 9.039l6.938-26.66c-15.611-6.3-29.945-6.939-36.976-6.939zM46.035 439.22H89.86c-.639-1.004-3.47-5.568-4.656-12.6-1.369-7.942 1.004-18.168 1.004-18.168l18.352-69.114c-5.935-3.196-10.499-5.295-18.808-7.852-8.582-2.556-18.352-4.291-28.395-4.291-53.319 0-75.414 46.107-75.414 75.141 0 0-3.287 39.807 30.494 39.441 23.646 0 31.407-23.464 31.407-23.464l1.096-2.283.548-.73c-.456 3.013-1.187 7.122-1.187 12.143 0 4.383.913 8.765 1.734 11.777zM35.17 412.744c-6.847 0-12.873-3.013-12.873-14.7 0-11.321 6.665-43.368 31.407-43.368 2.739 0 5.296.457 7.213 1.278l-12.782 47.567c-.456 1.461-.821 4.018-1.096 4.93-2.008 1.736-5.021 4.293-11.869 4.293zm312.157 30.767c-33.508 0-57.063-18.168-57.063-51.402s24.65-67.106 67.105-67.106c35.973 0 56.606 23.83 56.606 52.772.002 25.838-17.527 65.736-66.648 65.736zm24.469-71.396c0-15.886-9.13-18.534-14.426-18.534-18.899 0-25.107 31.956-25.107 43.459 0 4.748.639 9.769 3.743 13.33 2.191 2.739 6.208 4.748 10.683 4.748 19.081.09 25.107-32.778 25.107-43.003z"/></svg>